<svg width="11" height="14" viewBox="0 0 11 14" fill="none" xmlns="http://www.w3.org/2000/svg">
<g clip-path="url(#clip0)">
<path d="M9.78094 6.30255C9.63507 6.12754 9.45806 6.04009 9.24963 6.04009H8.99978V4.23999C8.99978 3.09001 8.65612 2.1026 7.96859 1.27759C7.28111 0.452558 6.45835 0.0400391 5.4999 0.0400391C4.54147 0.0400391 3.71855 0.452558 3.03112 1.27756C2.34359 2.1026 1.99994 3.08998 1.99994 4.23999V6.04009H1.74997C1.54171 6.04009 1.36459 6.12754 1.21874 6.30255C1.0729 6.47744 1 6.68998 1 6.94013V12.3401C1 12.59 1.07292 12.8026 1.21874 12.9776C1.36459 13.1525 1.54171 13.24 1.74997 13.24H9.24982C9.45825 13.24 9.63523 13.1526 9.78114 12.9776C9.92685 12.8026 9.99988 12.59 9.99988 12.3401V6.94003C9.99999 6.69008 9.92685 6.47757 9.78094 6.30255ZM7.49986 6.04009H3.49994V4.23999C3.49994 3.57753 3.69529 3.01186 4.0859 2.54319C4.47656 2.07446 4.94787 1.84014 5.49998 1.84014C6.05214 1.84014 6.52334 2.07443 6.91403 2.54319C7.30454 3.01183 7.49986 3.57753 7.49986 4.23999V6.04009Z" fill="#AFB4CC"/>
</g>
<defs>
<clipPath id="clip0">
<rect width="11" height="13.2" fill="white"/>
</clipPath>
</defs>
</svg>
